<svg xmlns="http://www.w3.org/2000/svg" width="22" height="22" viewBox="0 0 22 22">
    <g fill="none" fill-rule="evenodd" stroke="#007894">
        <path d="M21 11c0 5.523-4.477 10-10 10S1 16.523 1 11 5.477 1 11 1s10 4.477 10 10z"/>
        <g stroke-width=".5">
            <path d="M10.722 13.708H6.278V7.292H8.5v2.48h2.222v3.936zm-.123-4.23H8.778V7.456l1.821 2.024zM8.778 7H6v7h5V9.479L8.778 7zM16.722 13.708h-4.444V7.292H14.5v2.48h2.222v3.936zm-.124-4.23h-1.82V7.455l1.82 2.025zM14.778 7H12v7h5V9.479L14.778 7z"/>
        </g>
    </g>
</svg>
