<svg xmlns="http://www.w3.org/2000/svg" width="22" height="22" viewBox="0 0 22 22">
    <g fill="none" fill-rule="evenodd">
        <path stroke="#007894" d="M21 11c0 5.522-4.477 10-10 10S1 16.522 1 11C1 5.477 5.477 1 11 1s10 4.477 10 10z"/>
        <path fill="#007894" d="M11.072 16h.847V8.709h-.847V16zM11 6.732c0-.253.048-.438.143-.556A.443.443 0 0 1 11.5 6c.136 0 .254.06.352.18.099.12.148.304.148.552 0 .249-.05.433-.148.556a.442.442 0 0 1-.352.183.436.436 0 0 1-.357-.183C11.048 7.165 11 6.98 11 6.732z"/>
    </g>
</svg>
