<svg xmlns="http://www.w3.org/2000/svg" width="25" height="16" viewBox="0 0 25 16">
    <path fill="#FFF" fill-rule="evenodd" d="M23.878 10.563c-.806.747-1.438 2.179-1.438 3.26 0 .699-.426 1.288-.929 1.288-.502 0-.927-.59-.927-1.288 0-1.081-.633-2.512-1.426-3.242-.002-.003-.264-.312-.264-1.248 0-1.47 1.169-2.665 2.605-2.665 1.445 0 2.623 1.195 2.623 2.665 0 .917-.247 1.23-.244 1.23zm-2.38-4.785c-1.92 0-3.482 1.595-3.482 3.555 0 1.328.445 1.806.534 1.89.626.576 1.155 1.768 1.155 2.6 0 1.2.81 2.176 1.806 2.176s1.807-.975 1.807-2.176c0-.832.528-2.026 1.155-2.605.087-.082.527-.557.527-1.885 0-1.96-1.57-3.555-3.501-3.555zM21.512.89c.835 0 1.515.686 1.515 1.531 0 .844-.68 1.531-1.515 1.531a1.524 1.524 0 0 1-1.513-1.53c0-.846.679-1.532 1.513-1.532zm0 3.95c1.32 0 2.393-1.085 2.393-2.419S22.831 0 21.511 0c-1.319 0-2.391 1.086-2.391 2.42 0 1.334 1.072 2.42 2.391 2.42zm-6.421 5.724c-.808.748-1.439 2.179-1.439 3.26 0 .698-.426 1.288-.928 1.288-.503 0-.927-.59-.927-1.288 0-1.081-.633-2.513-1.426-3.242-.003-.003-.263-.31-.263-1.248 0-1.47 1.167-2.666 2.603-2.666 1.447 0 2.623 1.196 2.623 2.666 0 .917-.246 1.23-.243 1.23zm-2.38-4.785c-1.92 0-3.483 1.595-3.483 3.555 0 1.328.445 1.806.535 1.888.626.578 1.155 1.77 1.155 2.602 0 1.2.81 2.177 1.806 2.177.997 0 1.806-.977 1.806-2.177 0-.833.529-2.026 1.154-2.605.089-.082.53-.557.53-1.885 0-1.96-1.572-3.555-3.503-3.555zM12.723.89c.834 0 1.514.686 1.514 1.531 0 .844-.68 1.531-1.514 1.531a1.524 1.524 0 0 1-1.514-1.53c0-.846.68-1.532 1.514-1.532zm0 3.95c1.319 0 2.393-1.085 2.393-2.419S14.042.001 12.723.001c-1.32 0-2.392 1.085-2.392 2.42 0 1.333 1.073 2.419 2.392 2.419zm-6.86 5.724c-.808.747-1.44 2.179-1.44 3.26 0 .699-.425 1.288-.927 1.288-.503 0-.929-.59-.929-1.288 0-1.081-.633-2.512-1.425-3.242-.003-.003-.264-.312-.264-1.248 0-1.47 1.169-2.665 2.604-2.665 1.446 0 2.624 1.195 2.624 2.665 0 .917-.248 1.23-.245 1.23h.001zM3.481 5.778C1.562 5.778 0 7.373 0 9.333c0 1.328.445 1.806.532 1.89.628.576 1.157 1.768 1.157 2.6 0 1.2.81 2.176 1.807 2.176.996 0 1.806-.975 1.806-2.176 0-.832.529-2.026 1.154-2.605.088-.082.528-.557.528-1.885 0-1.96-1.571-3.555-3.502-3.555zM3.496.89c.834 0 1.513.686 1.513 1.531 0 .844-.679 1.531-1.513 1.531a1.524 1.524 0 0 1-1.514-1.53c0-.846.678-1.532 1.514-1.532zm0 3.95c1.318 0 2.391-1.085 2.391-2.419S4.814 0 3.496 0c-1.32 0-2.393 1.086-2.393 2.42 0 1.334 1.072 2.42 2.393 2.42z"/>
</svg>
