<svg xmlns="http://www.w3.org/2000/svg" xmlns:xlink="http://www.w3.org/1999/xlink" width="20" height="19" viewBox="0 0 20 19">
    <defs>
        <path id="a" d="M.079.283h18.994v18.603H.079z"/>
    </defs>
    <g fill="none" fill-rule="evenodd">
        <mask id="b" fill="#fff">
            <use xlink:href="#a"/>
        </mask>
        <path fill="#FFF" d="M9.575 7.133c-1.386 0-2.511 1.098-2.511 2.448 0 1.349 1.125 2.448 2.51 2.448 1.386 0 2.51-1.1 2.51-2.448 0-1.35-1.124-2.448-2.51-2.448m0 5.704c-1.83 0-3.32-1.46-3.32-3.256 0-1.796 1.49-3.256 3.32-3.256 1.83 0 3.319 1.46 3.319 3.256 0 1.796-1.488 3.256-3.318 3.256m-.75 5.24h1.576c.18-.367.57-1.344.884-2.185l.063-.168 1.433-.578.156.065c.853.364 1.863.768 2.257.89l1.107-1.08c-.141-.39-.567-1.344-.952-2.147l-.078-.163.595-1.417.16-.062c.864-.333 1.863-.743 2.237-.93v-1.52c-.377-.177-1.374-.556-2.232-.86l-.17-.061-.596-1.417.07-.161c.368-.83.778-1.807.909-2.201l-1.11-1.084c-.358.124-1.361.555-2.207.94l-.158.073-1.432-.578-.065-.16c-.338-.845-.76-1.827-.95-2.19H8.748c-.181.369-.57 1.345-.882 2.187l-.062.165-1.43.58-.155-.065c-.857-.363-1.87-.766-2.262-.891L2.85 4.142c.139.389.567 1.343.949 2.146l.079.163-.596 1.417-.16.062c-.862.33-1.861.74-2.234.927v1.522c.377.18 1.373.559 2.23.865l.167.06.598 1.413-.071.16c-.368.828-.776 1.806-.907 2.197l1.11 1.089c.359-.125 1.359-.556 2.206-.941l.159-.073 1.43.58.064.16c.342.847.762 1.826.95 2.189m1.79.808H8.618c-.301 0-.404 0-1.428-2.536l-.791-.32c-2.154.976-2.41.976-2.494.976H3.74l-.141-.12-1.415-1.384c-.215-.215-.29-.29.818-2.793l-.323-.763c-2.6-.932-2.6-1.04-2.6-1.347V8.642c0-.306 0-.403 2.593-1.405l.32-.765c-1.17-2.464-1.09-2.542-.858-2.758L3.656 2.22l.19-.004c.228 0 1.08.31 2.535.924l.788-.32C8.118.275 8.235.275 8.534.275h1.997c.297 0 .403 0 1.427 2.537l.792.319c2.15-.977 2.408-.977 2.495-.977h.163l.142.12 1.415 1.38c.215.218.288.292-.82 2.797l.324.768c2.604.928 2.604 1.035 2.604 1.342v1.956c0 .299 0 .405-2.596 1.407l-.32.766c1.166 2.453 1.088 2.53.87 2.75l-1.533 1.502-.19.004c-.23 0-1.08-.311-2.531-.926l-.793.32c-.952 2.546-1.06 2.546-1.365 2.546" mask="url(#b)"/>
    </g>
</svg>
