<svg xmlns="http://www.w3.org/2000/svg" xmlns:xlink="http://www.w3.org/1999/xlink" width="188" height="189" viewBox="0 0 188 189">
    <defs>
        <path id="a" d="M66.164.721c-18.514 0-27.807 0-38.015 3.228l-.101.034a41.086 41.086 0 0 0-24.611 24.61l-.035.101C.175 38.902.175 48.196.175 66.71v55.126c0 18.514 0 27.806 3.227 38.014l.035.102a41.078 41.078 0 0 0 24.611 24.61l.101.034c10.208 3.228 19.501 3.228 38.015 3.228h55.127c18.513 0 27.805 0 38.015-3.228l.1-.034a41.083 41.083 0 0 0 24.612-24.61l.034-.102c3.227-10.208 3.227-19.501 3.227-38.014V66.71c0-18.514 0-27.808-3.227-38.016l-.034-.101a41.085 41.085 0 0 0-24.612-24.61l-.101-.034C149.096.721 139.804.721 121.291.721H66.164zM29.708 179.845a36.093 36.093 0 0 1-21.555-21.553c-2.978-9.455-2.978-18.489-2.978-36.456V66.71c0-17.967 0-27.002 2.978-36.456A36.096 36.096 0 0 1 29.708 8.699c9.453-2.978 18.488-2.978 36.456-2.978h55.127c17.967 0 27.001 0 36.456 2.978a36.097 36.097 0 0 1 21.554 21.555c2.978 9.454 2.978 18.489 2.978 36.456v55.126c0 17.967 0 27.002-2.978 36.456a36.09 36.09 0 0 1-21.555 21.553c-9.454 2.98-18.489 2.98-36.455 2.98H66.164c-17.968 0-27.003 0-36.456-2.98z"/>
        <path id="c" d="M66.164.721c-18.514 0-27.807 0-38.015 3.228l-.101.034a41.336 41.336 0 0 0-4.082 1.738h139.523a41.354 41.354 0 0 0-4.083-1.738l-.101-.034C149.096.721 139.804.721 121.291.721H66.164zM3.437 28.593l-.035.101C.213 38.782.175 47.978.175 66.063v56.42c0 18.085.038 27.278 3.227 37.367l.035.102a41.68 41.68 0 0 0 1.738 4.082v-41.57V66.71 24.511a41.68 41.68 0 0 0-1.738 4.082zm181.878 126.615c1.965-8.615 1.964-17.681 1.964-33.372V66.71c0-15.692.001-24.759-1.964-33.374v121.872zm-64.024 27.617H23.967a41.553 41.553 0 0 0 4.081 1.737l.101.034c10.208 3.228 19.501 3.228 38.015 3.228h55.127c18.513 0 27.805 0 38.015-3.228l.1-.034a41.45 41.45 0 0 0 4.081-1.737h-42.196z"/>
    </defs>
    <g fill="none" fill-rule="evenodd">
        <path fill="#FEFEFE" d="M29.533 180.124c9.453 2.979 18.488 2.979 36.456 2.979h55.126c17.967 0 27.002 0 36.456-2.979a36.093 36.093 0 0 0 21.555-21.553c2.978-9.454 2.978-18.489 2.978-36.456V66.989c0-17.968 0-27.003-2.978-36.456a36.097 36.097 0 0 0-21.554-21.555C148.117 6 139.083 6 121.115 6H65.989C48.021 6 38.986 6 29.533 8.978A36.093 36.093 0 0 0 7.978 30.533C5 39.986 5 49.021 5 66.989v55.126c0 17.967 0 27.001 2.978 36.455a36.092 36.092 0 0 0 21.555 21.554m91.582 7.979H65.989c-18.515 0-27.808 0-38.016-3.228l-.1-.034a41.076 41.076 0 0 1-24.611-24.61l-.035-.101C0 149.921 0 140.629 0 122.115V66.989c0-18.514 0-27.807 3.227-38.015l.035-.102a41.084 41.084 0 0 1 24.611-24.61l.1-.034C38.181 1 47.474 1 65.989 1h55.126c18.514 0 27.806 0 38.015 3.228l.101.034a41.085 41.085 0 0 1 24.612 24.61l.034.102c3.227 10.208 3.227 19.501 3.227 38.015v55.126c0 18.513 0 27.806-3.227 38.015l-.034.101a41.083 41.083 0 0 1-24.612 24.61l-.1.034c-10.21 3.228-19.502 3.228-38.016 3.228"/>
        <mask id="b" fill="#fff">
            <use xlink:href="#a"/>
        </mask>
        <path fill="#FEFEFE" d="M5.175 182.824h180.14V5.72H5.175v177.104zm-5 5h190.14V.72H.175v187.104z" mask="url(#b)"/>
        <g>
            <mask id="d" fill="#fff">
                <use xlink:href="#c"/>
            </mask>
            <path fill="#FEFEFE" d="M-10 198h207.454V-9.454H-10V198zm-5 5h217.454V-14.454H-15V203z" mask="url(#d)"/>
        </g>
        <path fill="#FEFEFE" d="M140.023 110.154L122.938 93.07a2.282 2.282 0 0 0-.957-.571c-.169-.052-16.943-5.227-19.395-18.306a2.282 2.282 0 0 0-2.494-1.847l-8.21.912a2.287 2.287 0 0 0-1.26.558c-2.03 1.792-8.328 6.444-13.035 6.444-1.543 0-2.714-.483-3.67-1.52-.16-.402-.785-2.705 3.44-7.113 7.706-8.042 10.971-9.46 10.963-9.46a1.87 1.87 0 0 0 .147-.058c.043-.02 4.311-1.826 8.58-1.826.713 0 1.388.052 2.007.156 3.722.62 17.414 7.819 25.708 12.507a2.275 2.275 0 0 0 1.824.186l24.65-9.773 13.03 34.674-24.243 12.12zm-3.133 8.468c-1.307 1.185-3.435 1.35-4.788 1.282l-17.378-15.761a2.28 2.28 0 0 0-3.062 3.379l16.765 15.208c-.116 1.929-.693 3.437-1.78 4.437-1.444 1.33-3.466 1.656-4.679 1.728l-16.324-15.592a2.283 2.283 0 0 0-3.224.075 2.282 2.282 0 0 0 .075 3.224l15.801 15.093c-.347 1.675-1.032 2.9-2.127 3.669-1.075.752-2.375.993-3.483 1.046-.059-.073-.09-.16-.158-.225L98.314 122.7a2.279 2.279 0 1 0-3.139 3.307l12.415 11.778-.043.196c-.448 2.016-1.317 2.393-1.605 2.516-1.778.775-4.856-.614-5.884-1.205l-7.139-5.006.585-6.435-.1-.39c-1.35-5.097-4.42-7.204-6.814-7.845-2.597-5.382-6.383-6.224-8.497-6.224a8.95 8.95 0 0 0-1.686.162c-1.514-4.927-4.606-5.741-6.48-5.741-2.234 0-4.392 1.142-5.875 2.162-2.092-2.258-4.269-3.4-6.49-3.4-2.409 0-4.617 1.327-6.52 3.829L24.388 91.366l20.298-30.852c2.806 1.954 8.323 5.6 14.801 8.839.667.334 1.456.32 2.111-.038 4.944-2.697 11.801-4.483 17.275-5.582a109.821 109.821 0 0 0-4.81 4.74c-7.449 7.777-4.204 12.492-3.729 13.1 1.831 2.126 4.338 3.249 7.252 3.248 6.392 0 13.451-5.423 15.488-7.107l5.518-.613c3.756 12.962 18.37 18.527 21.506 19.582l17.858 17.856c.103.103.236.157.353.234-.058 1.732-.523 3.032-1.42 3.849zm-48.732 19.52c0 .359-.193 1.233-.6 1.648-.08.08-.36.327-1.107.327-.163 0-.357-.012-.54-.034-3.085-.386-4.96-2.784-5.463-3.512-.763-4.194.1-8.94 2.058-11.286.751-.901 1.566-1.34 2.495-1.34.305.013 2.682.246 3.89 4.309l-.798 9.618.065.149v.12zm-13.649-1.576c-2.046.002-3.412-2.568-4.234-4.89l.016-.002c-.825-4.528 3.735-10.865 5.867-13.295a4.875 4.875 0 0 1 1.934-.43c1.371 0 2.566.764 3.578 2.24-.979.5-1.876 1.228-2.668 2.176-2.653 3.18-3.87 8.655-3.193 13.917-.395.155-.84.284-1.3.284zm-14.024-11.041v-.014c-.618-3.392 1.485-6.95 3.236-9.232l1.563-1.476c.997-.941 3.138-2.433 4.643-2.433 1.306 0 1.998 1.73 2.372 3.502-1.943 2.312-6.589 8.485-6.643 14.557a5.22 5.22 0 0 1-1.235.16c-.752.002-3.043.002-3.936-5.064zm-7.7-6.267c-.443-1.007-.372-2.06.218-3.31 1.425-3.014 3.127-4.815 4.556-4.815.858 0 1.896.629 3.004 1.788-1.745 2.17-3.979 5.605-4.578 9.467-1.316-.78-2.638-1.838-3.2-3.13zm116.361-20.592l-14.11-38.797a2.28 2.28 0 0 0-2.909-1.591l-25.992 10.209c-4.407-2.466-21.095-11.671-26.329-12.542a16.765 16.765 0 0 0-2.757-.217c-4.549 0-8.916 1.61-10.074 2.072-2.687.315-16.907 2.166-26.479 6.952-8.34-4.3-14.972-9.244-15.04-9.295a2.282 2.282 0 0 0-3.273.572L19.375 90.693a2.28 2.28 0 0 0 .58 3.108l28.778 20.554c-.994 2.315-1.046 4.64-.12 6.746 1.59 3.619 5.556 5.663 7.66 6.525 1.611 6.51 5.738 7.525 8.15 7.525.81 0 1.566-.112 2.226-.268 2.303 5.099 5.476 6.243 7.86 6.242h.002c1.227 0 2.322-.31 3.192-.681 1.422 1.589 3.95 3.703 7.626 4.162.384.048.748.069 1.087.069 2.226 0 3.602-.942 4.363-1.734 1.038-1.08 1.476-2.412 1.658-3.428l5.078 3.56.138.09c.446.269 3.642 2.113 7.043 2.113 1.018 0 2.056-.164 3.041-.59 1.19-.511 2.66-1.561 3.618-3.724 1.938.099 4.898-.105 7.396-1.841 1.897-1.316 3.19-3.231 3.851-5.704 1.93-.167 4.826-.79 7.102-2.868 1.691-1.546 2.746-3.583 3.147-6.08 2.031-.03 4.897-.481 7.08-2.45 2.087-1.88 3.067-4.642 2.945-8.193l25.086-12.544a2.277 2.277 0 0 0 1.184-2.616z"/>
    </g>
</svg>
